<svg width="163" height="40" xmlns="http://www.w3.org/2000/svg" xml:space="preserve" id="Layer_1" x="0" y="0" style="enable-background:new 0 0 163 40" version="1.1" viewBox="0 0 163 40"><style>.st3{fill:#625df5}.st4{fill:#101828}</style><path id="path26_00000121268620576824867560000003134952000580353178_" d="M46.1 19.1c.4-.4.7-.8 1-1.2.5-.9.8-2 .8-3.2 0-2.1-.6-3.7-1.8-4.7-1.2-1-2.8-1.6-4.8-1.6H36l-5.5 5.5V28.5H36V13.6h3.8c.9 0 1.6.2 1.9.6.4.4.6.9.6 1.5 0 .7-.2 1.2-.6 1.6-.4.4-1 .6-1.9.6h-2.6l.6.6 10 10v-6.4l-2.3-2.4c.1-.1.4-.3.6-.6m8.4-5.4 2.7-.1c1.4 0 2.6.5 3.6 1.5.6.6 1.1 1.3 1.3 2.1.1.5.2.9.2 1.4 0 1.3-.4 2.4-1.3 3.4s-1.9 1.4-3.2 1.4h-2.3v5h2.6c2.7 0 4.9-1 6.7-2.9 1.8-1.9 2.7-4.2 2.7-6.9 0-.6-.1-1.1-.1-1.6-.3-2.1-1.3-4-3-5.6-2.1-2-4.7-3-7.6-3h-2.3L49 14v14.5h5.5V13.7m25-5.2v12.3c0 .7-.3 1.3-.8 1.7-.5.5-1.1.7-1.8.7s-1.3-.2-1.8-.7c-.5-.5-.8-1.1-.8-1.7V8.5L68.8 14V20.7c0 2.2.8 4 2.4 5.5 1.6 1.5 3.4 2.3 5.6 2.3 2.2 0 4.1-.8 5.7-2.3 1.6-1.5 2.4-3.4 2.4-5.5V8.5h-5.4zm-55 0L11.8 21.2l-.8.8L.5 32.4H7l12.1-12.1 4.6-4.6V21H20l-4.9 4.9h8.6v2.6h5.5v-20h-4.7zm133.1 20.9 4 3.1H8.5l3.1-3.1h146z"/><path id="path28_00000126301819458800099110000015611119025264593337_" d="M102.3 10.4c-1.4-1.3-3.2-1.9-5.3-1.9h-5.3L86.2 14v14.5h5.5V13.6h3.8c.9 0 1.6.2 1.9.7.4.5.6 1.1.6 1.9v.2c0 .6-.2 1-.6 1.4-.4.4-1 .6-1.9.6H93v4.9h4.1c2 0 3.7-.7 5.1-2.1 1.4-1.4 2.1-3 2.2-5V16c.1-2.4-.6-4.3-2.1-5.6m3.5 3.6v14.5h5.5v-20l-5.5 5.5zm12.2 9.4V8.5l-5.5 5.5v14.5h12.7v-5l-7.2-.1zm32.6-14.9-5.2 5.2h5v14.8h5.5V13.6h1.8l5.2-5.2-12.3.1zm-15.3 13.1c-1.7 0-3.1-1.4-3.1-3.1 0-1.7 1.4-3.1 3.1-3.1 1.7 0 3.1 1.4 3.1 3.1 0 1.7-1.4 3.1-3.1 3.1m-1.5 6.9c-4.8-.7-8.6-4.9-8.6-10 0-5.6 4.5-10.1 10.1-10.1s10.1 4.5 10.1 10.1c0 5.1-3.7 9.2-8.6 10v-3.9c2.7-.7 4.8-3.1 4.8-6.1 0-3.5-2.8-6.3-6.3-6.3S129 15 129 18.5c0 2.9 2 5.4 4.7 6.1l.1 3.9z"/><g id="use26_00000140016363884700750650000011492545477671087525_"><path id="path26_00000011014104011878662780000009078348294166790559_" d="M46.3 19.7c.4-.4.7-.8 1-1.2.5-.9.8-2 .8-3.2 0-2.1-.6-3.7-1.8-4.7-1.2-1-2.8-1.6-4.8-1.6h-5.3l-5.5 5.5V29h5.5V14.1H40c.9 0 1.6.2 1.9.6.4.4.6.9.6 1.5 0 .7-.2 1.2-.6 1.6-.4.4-1 .6-1.9.6h-2.6l.6.6 10 10v-6.4l-2.3-2.4c.1-.1.4-.3.6-.5m8.4-5.5 2.7-.1c1.4 0 2.6.5 3.6 1.5.6.6 1.1 1.3 1.3 2.1.1.5.2.9.2 1.4 0 1.3-.4 2.4-1.3 3.4s-1.9 1.4-3.2 1.4h-2.3v5h2.6c2.7 0 4.9-1 6.7-2.9 1.8-1.9 2.7-4.2 2.7-6.9 0-.6-.1-1.1-.1-1.6-.3-2.1-1.3-4-3-5.6-2.1-2-4.7-3-7.6-3h-2.3l-5.5 5.5V29h5.5V14.2m25-5.2v12.2c0 .7-.3 1.3-.8 1.7-.5.5-1.1.7-1.8.7s-1.3-.2-1.8-.7c-.5-.5-.8-1.1-.8-1.7V9L69 14.5V21.2c0 2.2.8 4 2.4 5.5C73 28.2 74.8 29 77 29c2.2 0 4.1-.8 5.7-2.3 1.6-1.5 2.4-3.4 2.4-5.5V9h-5.4zm-55 0L12 21.7l-.8.8L.7 33h6.5l12.1-12.1 4.6-4.6v5.3h-3.7l-4.9 4.9h8.6V29h5.5V9h-4.7zm133.2 20.9 4 3.1H8.7l3.1-3.1h146.1z"/></g><g id="use32_00000065771754014575507880000011481294743592449435_"><path id="path28_00000055670274367475538240000003481240785905984410_" d="M102.5 10.9C101.1 9.6 99.3 9 97.2 9h-5.3l-5.5 5.5V29h5.5V14.1h3.8c.9 0 1.6.2 1.9.7.4.5.6 1.1.6 1.9v.2c0 .6-.2 1-.6 1.4-.4.4-1 .6-1.9.6h-2.5v4.9h4.1c2 0 3.7-.7 5.1-2.1 1.4-1.4 2.1-3 2.2-5v-.2c.1-2.4-.6-4.3-2.1-5.6m3.5 3.6V29h5.5V9l-5.5 5.5zm12.2 9.5V9l-5.5 5.5V29h12.7v-5h-7.2zm32.6-15-5.2 5.2h5V29h5.5V14.1h1.8L163 9h-12.2zm-15.3 13.2c-1.7 0-3.1-1.4-3.1-3.1 0-1.7 1.4-3.1 3.1-3.1 1.7 0 3.1 1.4 3.1 3.1 0 1.7-1.4 3.1-3.1 3.1M134 29c-4.8-.7-8.6-4.9-8.6-10 0-5.6 4.5-10.1 10.1-10.1s10.1 4.5 10.1 10.1c0 5.1-3.7 9.2-8.6 10v-3.9c2.7-.7 4.8-3.1 4.8-6.1 0-3.5-2.8-6.3-6.3-6.3s-6.3 2.8-6.3 6.3c0 2.9 2 5.4 4.7 6.1l.1 3.9z"/></g><g id="use34_00000074439463022920105670000018294968276354036116_"><linearGradient id="path26_00000164497614681594749540000012249818264276724651_" x1="395.564" x2="395.564" y1="-253.746" y2="-276.694" gradientTransform="matrix(1 0 0 -1 -314.5 -246)" gradientUnits="userSpaceOnUse"><stop offset="0" style="stop-color:#ededed"/><stop offset="1" style="stop-color:#c7c7c7"/></linearGradient><path id="path26_00000107567952239385098060000006000740820201970366_" d="M46.1 19.1c.4-.4.7-.8 1-1.2.5-.9.8-2 .8-3.2 0-2.1-.6-3.7-1.8-4.7-1.2-1-2.8-1.6-4.8-1.6H36l-5.5 5.5V28.5H36V13.6h3.8c.9 0 1.6.2 1.9.6.4.4.6.9.6 1.5 0 .7-.2 1.2-.6 1.6-.4.4-1 .6-1.9.6h-2.6l.6.6 10 10v-6.4l-2.3-2.4c.1-.1.4-.3.6-.6m8.4-5.4 2.7-.1c1.4 0 2.6.5 3.6 1.5.6.6 1.1 1.3 1.3 2.1.1.5.2.9.2 1.4 0 1.3-.4 2.4-1.3 3.4s-1.9 1.4-3.2 1.4h-2.3v5h2.6c2.7 0 4.9-1 6.7-2.9 1.8-1.9 2.7-4.2 2.7-6.9 0-.6-.1-1.1-.1-1.6-.3-2.1-1.3-4-3-5.6-2.1-2-4.7-3-7.6-3h-2.3L49 14v14.5h5.5V13.7m25-5.2v12.3c0 .7-.3 1.3-.8 1.7-.5.5-1.1.7-1.8.7s-1.3-.2-1.8-.7c-.5-.5-.8-1.1-.8-1.7V8.5L68.8 14V20.7c0 2.2.8 4 2.4 5.5 1.6 1.5 3.4 2.3 5.6 2.3 2.2 0 4.1-.8 5.7-2.3 1.6-1.5 2.4-3.4 2.4-5.5V8.5h-5.4zm-55 0L11.8 21.2l-.8.8L.5 32.4H7l12.1-12.1 4.6-4.6V21H20l-4.9 4.9h8.6v2.6h5.5v-20h-4.7zm133.1 20.9 4 3.1H8.5l3.1-3.1h146z" style="fill:url(#path26_00000164497614681594749540000012249818264276724651_)"/></g><g id="use36_00000110436201989079706670000006154674130319482013_"><linearGradient id="path28_00000048489531484632836450000005612807450965004471_" x1="439.016" x2="439.016" y1="-253.746" y2="-272.834" gradientTransform="matrix(1 0 0 -1 -314.5 -246)" gradientUnits="userSpaceOnUse"><stop offset="0" style="stop-color:#fdd94d"/><stop offset="1" style="stop-color:#f89f27"/></linearGradient><path id="path28_00000001624108420600253530000000359471232714670746_" d="M102.3 10.4c-1.4-1.3-3.2-1.9-5.3-1.9h-5.3L86.2 14v14.5h5.5V13.6h3.8c.9 0 1.6.2 1.9.7.4.5.6 1.1.6 1.9v.2c0 .6-.2 1-.6 1.4-.4.4-1 .6-1.9.6H93v4.9h4.1c2 0 3.7-.7 5.1-2.1 1.4-1.4 2.1-3 2.2-5V16c.1-2.4-.6-4.3-2.1-5.6m3.5 3.6v14.5h5.5v-20l-5.5 5.5zm12.2 9.4V8.5l-5.5 5.5v14.5h12.7v-5l-7.2-.1zm32.6-14.9-5.2 5.2h5v14.8h5.5V13.6h1.8l5.2-5.2-12.3.1zm-15.3 13.1c-1.7 0-3.1-1.4-3.1-3.1 0-1.7 1.4-3.1 3.1-3.1 1.7 0 3.1 1.4 3.1 3.1 0 1.7-1.4 3.1-3.1 3.1m-1.5 6.9c-4.8-.7-8.6-4.9-8.6-10 0-5.6 4.5-10.1 10.1-10.1s10.1 4.5 10.1 10.1c0 5.1-3.7 9.2-8.6 10v-3.9c2.7-.7 4.8-3.1 4.8-6.1 0-3.5-2.8-6.3-6.3-6.3S129 15 129 18.5c0 2.9 2 5.4 4.7 6.1l.1 3.9z" style="fill:url(#path28_00000048489531484632836450000005612807450965004471_)"/></g></svg>