<svg width="161" height="40" xmlns="http://www.w3.org/2000/svg" xml:space="preserve" id="Layer_1" x="0" y="0" style="enable-background:new 0 0 161 40" version="1.1" viewBox="0 0 161 40"><style>.st6{fill:#3758f9}.st8{fill:#111928}</style><path d="m135.6 12.7-6.7-1.6-1.2-.5-30.7.2v14.8l38.6.1v-13z" style="fill:#fff"/><path d="M123.1 24.4c.4-1 .3-2.2-.4-3.1-.6-.8-1.5-1.2-2.5-1.3l-20.8-.2c-.1 0-.2-.1-.4-.1-.1-.1-.1-.2 0-.3.1-.2.2-.4.5-.4l20.9-.2c2.7-.3 5-2 6.1-4.5l1.2-3.1c0-.1.1-.2 0-.4-1.6-7.3-8.9-11.9-16.3-10.3-4.6 1-8.4 4.4-9.9 8.9-1.2-.9-2.8-1.3-4.3-1.2-2.9.3-5.2 2.6-5.5 5.5-.1.7 0 1.4.1 2.1-4.7.1-8.5 4-8.5 8.7 0 .4 0 .9.1 1.3 0 .2.2.3.4.4h38.3c.2 0 .5-.1.5-.4l.5-1.4z" style="fill:#f48120"/><path d="M129.7 11h-.6c-.1 0-.2.1-.4.2l-.8 2.9c-.4 1-.3 2.2.4 3.1.6.8 1.5 1.2 2.5 1.3l4.4.2c.1 0 .2.1.4.1.1.1.1.2 0 .3-.1.2-.2.4-.5.4l-4.5.2c-2.7.3-5 2-6.1 4.5l-.2 1.1c-.1.1 0 .4.2.4h15.8c.2 0 .3-.1.4-.3v-.1c.3-1 .4-2.1.5-3.1-.2-6.1-5.3-11.2-11.5-11.2" style="fill:#faad3f"/><path d="M142.6 32.5c-.6 0-1.1-.5-1.1-1.1 0-.6.5-1.1 1.1-1.1.6 0 1.1.5 1.1 1.1-.1.6-.5 1.1-1.1 1.1m0-1.9c-.5 0-.8.4-.8.8s.4.8.8.8c.5 0 .8-.4.8-.8s-.3-.8-.8-.8m.4 1.4h-.2l-.2-.4h-.2v.4h-.2v-1.1h.6c.2 0 .3.1.4.3v.1c0 .1-.1.2-.2.4v.3zm-.3-.6c.1 0 .1 0 .1-.1s0-.1-.1-.1h-.4v.4h.4v-.2zM35.6 30.3h2.6v7.2h4.5v2.3h-7.2v-9.5zm9.9 4.7c0-2.7 2.2-4.9 4.9-4.9h.2c2.6-.1 4.9 1.9 5 4.6v.3c0 2.7-2.2 4.9-4.9 4.9h-.2c-2.7.1-4.9-2-5-4.7V35m7.5 0c.1-1.4-.9-2.5-2.3-2.6h-.1c-1.4.1-2.5 1.2-2.4 2.6.1 1.3 1.1 2.3 2.4 2.4 1.5.2 2.4-1 2.4-2.4m5.9.6v-5.3h2.6v5.3c0 1.3.7 2 1.8 2 .9.1 1.7-.6 1.8-1.5V30.3h2.6v5.3c0 3.1-1.8 4.4-4.4 4.4-2.8-.1-4.4-1.4-4.4-4.4m12.8-5.3h3.7c3.3 0 5.4 1.9 5.4 4.7 0 2.7-2 4.8-5.4 4.8h-3.6v-9.4h-.1zm3.7 7.1c1.3.1 2.5-.8 2.6-2.2.1-1.3-.8-2.5-2.2-2.6h-1.6v4.8h1.2zm9-7.1h7.5v2.3H87v1.6h4.4v2.1H87v3.5h-2.6v-9.5zm11.2 0h2.6v7.2h4.5v2.3h-7.2v-9.5zm14-.1h2.6l4.1 9.6h-2.9l-.7-1.7H109l-.7 1.7h-2.7l4-9.6zm2.4 5.9-1.1-2.6-1.1 2.6h2.2zm7.6-5.8h4.4c1.1-.1 2.3.3 3.1 1.1 1.2 1.3 1.1 3.3-.2 4.4l-.9.6 2.3 3.3h-3l-1.9-2.9h-1.2v2.9h-2.6v-9.4zm4.3 4.6c.8 0 1.4-.5 1.4-1.1 0-.7-.6-1.1-1.4-1.1h-1.7V35h1.7v-.1zm7.8-4.6h7.6v2.1h-5v1.4h4.5v2.1h-4.5v1.4h5.1v2.3h-7.8l.1-9.3zM29.9 36.2c-.4.9-1.2 1.4-2.1 1.4-1.4-.1-2.5-1.2-2.4-2.6.1-1.3 1.1-2.3 2.4-2.4 1 0 1.9.6 2.3 1.6h2.7c-.5-2.4-2.6-4-5-3.9-2.7-.1-5 2.1-5.1 4.8v.1c0 2.7 2.2 4.9 4.8 4.9h.2c2.3 0 4.4-1.6 5-3.8h-2.8z" style="fill:#404041"/></svg>