<svg width="158" height="40" xmlns="http://www.w3.org/2000/svg" xml:space="preserve" style="enable-background:new 0 0 158 40" viewBox="0 0 158 40"><path d="M103.1 7.9h10.6l-5.3 22.3H97.9l5.2-22.3zm-13.6 0h10.6L95 29.3C93.8 34.5 90.2 40 82.8 40H66.9l2.4-7.3h7.3c3.4 0 7.3-1.9 8.1-5.4l4.8-19.4zM88.3 0H77.4l-5.1 21.4c-.5 2.1-1.2 3.3-3.7 3.3h-9.3c-2.1 0-2.1-1.2-1.6-3l1.4-5.9c.4-1.5.8-2.1 2.8-2.1H71L72.4 8H54.7c-4.2 0-6.7 2-7.7 6.2l-2.4 10c-1 4.2.6 6.1 3.6 6.1h26c5.4 0 7.6-2.1 8.5-6.2L88.3 0z" style="fill:#0656a5"/></svg>