<svg width="188" height="40" xmlns="http://www.w3.org/2000/svg" xml:space="preserve" id="Layer_1" x="0" y="0" style="enable-background:new 0 0 188 40" version="1.1" viewBox="0 0 188 40"><style>.st3{fill:#1c2033}.st4{fill:#6566ff}</style><path d="M106.5 12.3h3.3v9.2c0 4.6-2.5 7.3-7 7.3s-6.9-2.6-6.9-7.2v-9.3h3.3v9.2c0 2.7 1.4 4.1 3.7 4.1s3.7-1.4 3.7-4.1l-.1-9.2zm-18.6 6.5h-7.5v-6.5h-3.3v16.2h3.3v-6.6h7.5v6.6h3.3V12.3h-3.3v6.5zm82.6-6.5v16.2h3.3V12.3h-3.3zm-13 9.2h6v-2.9h-6v-3.3h8.7v-2.9h-11.9v16.2h12.3v-3h-9v-4.1h-.1zm-12.9 2-3.7-11.1h-2.7l-3.7 11.1-3.5-11.2h-3.5l5.7 16.2h2.7l3.7-10.7 3.7 10.7h2.8l5.7-16.2h-3.4l-3.8 11.2zm-23-11.1 7.1 16.2h-3.4l-1.4-3.3h-7.4l-.1.2-1.4 3.1h-3.3l7.2-16.2h2.7zm.7 9.4-2.3-5.4-2.3 5.4-.2.4h5l-.2-.4z" style="fill:#fff"/><path d="M24.8 31.2c.1 0 .1-.1 0-.2-4-8.5-9-16.6-14.9-24 0 0-4.7 4.4-4.4 8.8.2 2.1 1.1 4 2.7 5.3 4.1 4 14 8.9 16.3 10.1.1.1.2.1.3 0m-1.6 3.4c0-.1-.1-.1-.2-.1L6.5 35c1.8 3.2 4.8 5.6 7.9 4.8 2.2-.5 7.1-4 8.7-5 .2-.1.1-.2.1-.2m.3-1.5c.1-.1-.1-.2-.1-.2-7.2-4.8-21.3-12.2-21.3-12.2-1.7 5 1.1 10.5 6.3 12.2.8.3 1.7.4 2.5.5h12.4c.1-.2.1-.2.2-.3M24.6 0c-.7.1-2.7.5-2.7.5-4.4 1.1-5.4 5-5.4 5-.8 2.5 0 5.1 0 5.1 1.5 6.4 8.6 17 10.2 19.2.1.1.2.1.2.1.1 0 .2-.1.2-.2C29.4 6.2 24.6 0 24.6 0M30 30c.1 0 .2 0 .2-.1 1.6-2.3 8.7-12.8 10.2-19.1 0 0 .8-3.1 0-5.1 0 0-1.1-4-5.5-5 0 0-1.3-.3-2.6-.5 0 0-4.9 6.2-2.5 29.8.1-.1.2-.1.2 0m3.9 4.5c-.1 0-.1.1-.2.1 0 .1 0 .2.1.2 1.6 1.1 6.4 4.4 8.7 5 0 0 4.3 1.5 8-4.8l-16.6-.5zm21-13.9s-14 7.4-21.3 12.3c-.1.1-.1.1-.1.2 0 0 .1.1.2.1h12.7c1-.1 1.9-.3 2.8-.7 0 0 3.5-1.1 5.3-5 0 .1 1.6-3.2.4-6.9M32.2 31.2c.1 0 .1.1.2 0 2.4-1.2 12.2-6.1 16.3-10.1 0 0 2.6-2.1 2.7-5.3C51.7 11.3 47 7 47 7s-8.6 10.3-14.9 23.9c.1.1.1.2.1.3" style="fill:#ce0e2d"/></svg>