<svg width="188" height="40" xmlns="http://www.w3.org/2000/svg" xml:space="preserve" id="Layer_1" x="0" y="0" style="enable-background:new 0 0 188 40" version="1.1" viewBox="0 0 188 40"><style>.st5{fill:#1c2033}.st6{fill:#6566ff}</style><path d="M108.2 12.8h3.1v8.6c0 4.4-2.4 6.9-6.6 6.9-4.2 0-6.6-2.5-6.6-6.8v-8.8h3.1v8.7c0 2.6 1.3 3.9 3.5 3.9s3.5-1.3 3.5-3.8v-8.7zM90.7 19h-7v-6.2h-3.1v15.3h3.1v-6.2h7v6.2h3.1V12.8h-3.1V19zm77.9-6.2v15.3h3.1V12.8h-3.1zm-12.2 8.7h5.7v-2.8h-5.7v-3.1h8.2v-2.8h-11.3v15.3h11.6v-2.8h-8.5v-3.8zm-12.2 1.8-3.5-10.5h-2.5l-3.5 10.5-3.4-10.5H128l5.3 15.3h2.6l3.5-10.1 3.5 10.1h2.6l5.3-15.3h-3.2l-3.4 10.5zm-21.7-10.4 6.7 15.2h-3.3l-1.4-3.2h-7l-.1.2-1.3 3h-3.2l6.8-15.3 2.8.1zm.7 8.9-2.2-5.1-2.2 5.1-.2.4h4.7l-.1-.4z" style="fill:#24272a"/><path d="M24.8 31.2c.1 0 .1-.1 0-.2-4-8.5-8.9-16.6-14.8-24 0 0-4.6 4.4-4.3 8.8.2 2.1 1.1 4 2.7 5.3 4 3.9 13.8 8.9 16.1 10.1.2.1.2.1.3 0m-1.5 3.4c0-.1-.1-.1-.2-.1L6.8 35c1.8 3.2 4.8 5.6 7.8 4.9 2.1-.5 7-3.9 8.6-5.1.1-.1.1-.2.1-.2m.2-1.5c.1-.1-.1-.2-.1-.2-7.2-4.8-21-12.3-21-12.3-1.7 5.1 1.1 10.5 6.2 12.2.8.3 1.7.4 2.5.5h12.2c.1-.1.2-.1.2-.2M24.6 0c-.7.1-2.6.5-2.6.5-4.3 1.1-5.3 5-5.3 5-.8 2.5 0 5.2 0 5.2 1.4 6.4 8.5 16.9 10 19.1.1.1.2.1.2.1.1 0 .2-.1.2-.2C29.4 6.2 24.6 0 24.6 0M30 29.9c.1 0 .2 0 .2-.1 1.6-2.3 8.6-12.7 10-19.1 0 0 .8-3.1 0-5.2 0 0-1.1-4-5.4-5 0 0-1.2-.3-2.6-.5 0 0-4.8 6.2-2.5 29.7.2.1.2.2.3.2m3.9 4.5c-.1 0-.1.1-.2.1 0 .1 0 .2.1.2 1.6 1.1 6.3 4.4 8.6 5.1 0 0 4.2 1.4 7.9-4.9l-16.4-.5zm20.6-13.8s-13.8 7.4-21 12.3c-.1.1-.1.1-.1.2 0 0 .1.1.2.1h12.5c1-.1 1.9-.3 2.8-.6 0 0 3.5-1.1 5.2-5 .1-.1 1.7-3.3.4-7M32.2 31.2c.1 0 .1.1.2 0 2.3-1.2 12-6.1 16.1-10 0 0 2.5-2 2.7-5.3.3-4.6-4.3-8.8-4.3-8.8S38.4 17.4 32.2 31c-.1 0-.1.1 0 .2" style="fill:#ce0e2d"/></svg>