<svg width="174" height="40" xmlns="http://www.w3.org/2000/svg" xml:space="preserve" id="Layer_1" x="0" y="0" style="enable-background:new 0 0 174 40" version="1.1" viewBox="0 0 174 40"><style>.st5{fill:#fff}.st6,.st8,.st9{opacity:.56;fill:#fff;enable-background:new}.st8,.st9{opacity:.72}.st9{opacity:.88}.st11{fill:#1e1983}</style><g id="Layer_2_00000116211529721102090740000000990289518081780365_"><g id="Layer_1-2_00000029765485501035946520000010148724353598717609_"><path d="M88.1 40H56.4c-1.4 0-2.7-.3-3.8-1.1-1.3-.9-2-2.1-2.3-3.7-.3-1.2-.1-2.4.2-3.6.9-3.6 1.8-7.2 2.7-10.9.9-3.8 1.9-7.6 2.8-11.4.3-1.3.6-2.5 1-3.7.4-1.2 1-2.4 1.9-3.3.9-1 2.1-1.7 3.4-2 .6-.2 1.4-.3 2.1-.3h63.5c1.5 0 2.8.4 4 1.3 1 .9 1.7 2 2 3.3.3 1.2.1 2.5-.2 3.7-.8 3.1-1.5 6.3-2.3 9.4-.8 3.3-1.6 6.5-2.4 9.8-.5 2.1-1 4.2-1.6 6.4-.3 1.3-.9 2.4-1.7 3.4-1 1.2-2.2 2-3.8 2.4-.8.2-1.7.3-2.5.3H88.1z" class="st5"/><path d="M84.6 24.1c.2 0 .5-.1.7-.2 1.8-1.3 3.6-2.7 5.4-4l1.2-.9c0 .1.1.1.1.2 1 1.5 2 3.1 3 4.6.1.3.4.4.7.4h3.9c.5-.1.7-.5.4-1-.8-1.2-1.6-2.3-2.4-3.5-.8-1.2-1.6-2.3-2.4-3.5v-.1l8.4-6.5c.2-.2.4-.3.3-.6-.1-.3-.4-.3-.6-.3h-2.7c-.3 0-.5.1-.7.3-1.6 1.2-3.2 2.5-4.8 3.8L93.6 14c0-.1-.1-.1-.1-.1-1-1.5-2.1-3-3.1-4.6-.2-.3-.6-.5-.9-.5h-3.8c-.6.1-.8.5-.5 1l3.5 5.1 1.4 2-.2.2c-2.1 1.6-4.1 3.2-6.2 4.7-.1.1-.2.1-.4.1H80c.2-.5.3-.9.4-1.4.6-2.3 1.1-4.5 1.7-6.8.2-.8.4-1.5.4-2.3 0-1.1-.4-1.9-1.5-2.2-.8-.3-1.6-.3-2.5-.3H64.7c-.4 0-.7.3-.8.6l-.3 1.2c-.1.4.1.6.5.6H77.8c.3 0 .4.1.4.5 0 .1 0 .3-.1.4-.6 2.6-1.3 5.3-1.9 7.9-.1.4-.2.9-.4 1.3-.1.3-.3.5-.6.5h-7.4c-.5 0-.7.2-.9.7-.1.4-.2.8-.3 1.1-.1.2 0 .5.3.5h.5l17.2-.1zM113.7 17.2v.2l-1.5 6c-.1.5.1.7.5.7h2.9c.4 0 .8-.3.9-.7.5-2 1-4 1.4-5.9.1-.2.1-.3.4-.3H125.1c.3-.1.6-.3.6-.6l.3-1.2c0-.1 0-.3-.1-.4-.1-.1-.3-.2-.5-.2H118.5v-.2c.4-1.7.8-3.4 1.3-5.2.1-.5-.1-.8-.6-.8h-2.8c-.5 0-.8.3-.9.8-.4 1.7-.8 3.5-1.3 5.2 0 .1 0 .2-.2.2h-5.1c-.3 0-.5-.2-.5-.4v-.5c.4-1.5.7-3 1.1-4.5.1-.5-.1-.7-.6-.8h-2.8c-.5 0-.8.3-.9.7-.4 1.5-.8 3.1-1.1 4.6-.1.5-.2 1.1-.3 1.6 0 .8.5 1.4 1.3 1.6.3 0 .5.1.8 0h7.4l.4.1z"/><path d="M61.1 29.6h1.5c.4 0 .7-.3.8-.6l3.3-14c.1-.5-.1-.8-.6-.8h-2.6c-.6 0-.9.3-1 .8-.7 2.8-1.3 5.5-2 8.3-.5 1.9-.9 3.7-1.4 5.6-.1.4.1.6.5.7h1.5zM74.6 30.8v-.1c.2-.8.3-1.6.5-2.3v-.2c.2-.7-.2-1.1-.9-1.1-.1 0-.2 0-.2.2l-.9 3.9c-.1.6.2 1 .8 1h4.5c.6 0 1.1-.4 1.3-1.1.2-1 .4-2 .7-3 .1-.3.1-.7.2-1-.8-.1-1.4.3-1.5 1l-.3 1.5c-.1.4-.2.9-.3 1.3l-3.9-.1zM118.5 27c0-.2.1-.4 0-.6-.1-.4-.4-.6-1-.6-.1 0-.2.1-.2.1-.4 1.8-.8 3.5-1.1 5.3-.1.4.2.9.6.9h1.6c.7-.1 1.1-.6 1.1-1.3h-1.9v-.1c.2-.8.3-1.5.5-2.3 0-.1.1-.1.2-.1h.8c.7 0 1.3-.6 1.2-1.3h-1.8zM82.9 28.3h1c.6 0 1.2-.6 1.2-1.3h-1.9v-.3c.1-.4-.1-.8-.4-.9-.2-.1-.4-.1-.6 0-.1 0-.1.3-.1.4v.1c-.4 1.6-.7 3.2-1.1 4.8-.1.6.1 1 .7 1h1.5c.7-.1 1.1-.6 1.1-1.3h-1.9l.5-2.5zM105.3 30.8c.2-.9.4-1.9.6-2.8.1-.4-.1-.8-.4-.9-.2 0-.4-.1-.5-.1-.1 0-.2.1-.2.2-.3 1.3-.6 2.6-.9 4-.1.5.2.9.7 1h1.4c.7 0 1.2-.6 1.2-1.3l-1.9-.1zM102.1 28.9c-.3 0-.3 0-.4.3-.1.6-.3 1.2-.4 1.8-.1.7.2 1.1.9 1.1.1 0 .3-.1.3-.2.1-.7.3-1.3.4-2 .1-.6-.2-1-.8-1zM101.9 28.3c.1 0 .1 0 0 0h.8c.5 0 .5 0 .6-.5.1-.3.1-.5.2-.8h-1.3c-.1.4-.2.9-.3 1.3zM100 27h-4.5c-.6 0-1.1.4-1.2 1-.3 1.1-.5 2.3-.8 3.4-.1.6-.3 1.3-.4 1.9.8.1 1.4-.3 1.6-1.3h4.2c.6 0 1.2-.4 1.3-1 .2-1 .5-2.1.7-3.1.1-.5-.2-.9-.9-.9zm-1.1 3.8H95c.2-.8.4-1.7.5-2.5h3.9c-.1.9-.3 1.7-.5 2.5zM72.7 27h-5.5c-.6 0-1.1.4-1.2 1.1-.2 1-.4 2-.7 3-.1.6.2 1 .8 1h5.4c.1 0 .2 0 .2-.2.1-.6.3-1.3.4-1.9.3-1 .5-2 .6-3 .1 0 .1 0 0 0zM71 29.2l-.3 1.5c0 .1-.1.1-.2.1h-3.8c.2-.9.4-1.7.6-2.5h3.9c0 .3-.1.6-.2.9zM92.9 27.6c-.1-.4-.4-.6-.9-.6h-4.4c-.6 0-1.2.4-1.3 1.1-.2 1-.4 2-.7 3-.1.6.2 1 .8 1h4.5c.6 0 1.1-.4 1.2-1 .2-1.1.5-2.1.7-3.2.1-.1.1-.2.1-.3zm-1.7 1.9-.3 1.2c0 .1-.1.1-.2.1h-3.8c.2-.9.4-1.7.6-2.5h3.9c0 .4-.1.8-.2 1.2zM114.9 27h-4.5c-.6 0-1.1.4-1.3 1l-.6 2.7c0 .1 0 .2-.1.3-.1.6.2 1 .8 1.1h4.4c.7 0 1.2-.4 1.3-1 .2-1 .5-2 .7-3.1.3-.6 0-1-.7-1zm-.8 2.5-.3 1.2c0 .1-.1.2-.1.2h-3.8c.2-.8.4-1.7.6-2.5h3.9c-.1.3-.2.7-.3 1.1z"/></g></g></svg>