<svg width="174" height="40" xmlns="http://www.w3.org/2000/svg" xml:space="preserve" id="Layer_1" x="0" y="0" style="enable-background:new 0 0 174 40" version="1.1" viewBox="0 0 174 40"><style>.st5{fill:#fff}.st6,.st8,.st9{opacity:.56;fill:#fff;enable-background:new}.st8,.st9{opacity:.72}.st9{opacity:.88}.st11{fill:#1e1983}</style><g id="Layer_2_00000023276630074547875540000018401350940548829087_"><g id="Layer_1-2_00000063614171686522554490000000606032200189643684_"><path d="M83 40h31.5c.8 0 1.7-.1 2.5-.3 1.5-.4 2.8-1.1 3.8-2.4.8-1 1.4-2.2 1.7-3.4.5-2.1 1-4.2 1.6-6.4.8-3.3 1.6-6.5 2.4-9.8.8-3.1 1.5-6.3 2.3-9.4.3-1.2.5-2.4.2-3.7-.3-1.3-.9-2.4-2-3.3-1.2-.9-2.5-1.3-4-1.3H59.5c-.8 0-1.5.1-2.2.3-1.3.3-2.5 1-3.4 2-.9 1-1.5 2.1-1.9 3.3-.4 1.2-.7 2.5-1 3.7-.9 3.8-1.9 7.6-2.8 11.4-.9 3.6-1.8 7.3-2.7 10.9-.3 1.2-.5 2.4-.2 3.6.3 1.5 1.1 2.8 2.3 3.7 1.1.8 2.4 1.1 3.8 1.1H83z" class="st5"/><path d="M83 40H51.3c-1.4 0-2.7-.3-3.8-1.1-1.3-.9-2-2.1-2.3-3.7-.3-1.2-.1-2.4.2-3.6.9-3.6 1.8-7.2 2.7-10.9.9-3.8 1.9-7.6 2.8-11.4.3-1.3.6-2.5 1-3.7.4-1.2 1-2.4 1.9-3.3.9-1 2.1-1.7 3.4-2 .6-.2 1.4-.3 2.1-.3h63.5c1.5 0 2.8.4 4 1.3 1 .9 1.7 2 2 3.3.3 1.2.1 2.5-.2 3.7-.8 3.1-1.5 6.3-2.3 9.4-.8 3.3-1.6 6.5-2.4 9.8-.5 2.1-1 4.2-1.6 6.4-.3 1.3-.9 2.4-1.7 3.4-1 1.2-2.2 2-3.8 2.4-.8.2-1.7.3-2.5.3H83zm-3.5-15.9c.2 0 .5-.1.7-.2 1.8-1.3 3.6-2.7 5.4-4l1.2-.9c0 .1.1.1.1.2 1 1.5 2 3.1 3 4.6.1.3.4.4.7.4h3.9c.5-.1.7-.5.4-1-.8-1.2-1.6-2.3-2.4-3.5-.8-1.2-1.6-2.3-2.4-3.5v-.1l8.4-6.5c.2-.2.4-.3.3-.6-.1-.3-.4-.3-.6-.3h-2.7c-.3 0-.5.1-.7.3-1.6 1.2-3.2 2.5-4.8 3.8L88.5 14c0-.1-.1-.1-.1-.1-1-1.5-2.1-3-3.1-4.6-.2-.3-.6-.5-.9-.5h-3.8c-.6.1-.8.5-.5 1l3.5 5.1 1.4 2-.2.2c-2.1 1.6-4.1 3.2-6.2 4.7-.1.1-.2.1-.4.1H74.9c.2-.5.3-.9.4-1.4.6-2.3 1.1-4.5 1.7-6.8.2-.8.4-1.5.4-2.3 0-1.1-.4-1.9-1.5-2.2-.8-.3-1.6-.3-2.5-.3H59.6c-.4 0-.7.3-.8.6l-.3 1.2c0 .1.2.3.5.3H72.7c.3 0 .4.1.4.5 0 .1 0 .3-.1.4-.6 2.6-1.3 5.3-1.9 7.9-.1.4-.2.9-.4 1.3-.1.3-.3.5-.6.5h-7.4c-.5 0-.7.2-.9.7-.1.4-.2.8-.3 1.1-.1.2 0 .5.3.5h.5m46.3-6.8v.2l-1.5 6c-.1.5.1.7.5.7h2.9c.4 0 .8-.3.9-.7.5-2 1-4 1.4-5.9.1-.2.1-.3.4-.3H120c.3-.1.6-.3.6-.6l.3-1.2c0-.1 0-.3-.1-.4-.1-.1-.3-.2-.5-.2H113.4v-.2c.4-1.7.8-3.4 1.3-5.2.1-.5-.1-.8-.6-.8h-2.8c-.5 0-.8.3-.9.8-.4 1.7-.8 3.5-1.3 5.2 0 .1 0 .2-.2.2h-5.1c-.3 0-.5-.2-.5-.4v-.5c.4-1.5.7-3 1.1-4.5.1-.5-.1-.7-.6-.8H101c-.5 0-.8.3-.9.7-.4 1.5-.8 3.1-1.1 4.6-.1.5-.2 1.1-.3 1.6 0 .8.5 1.4 1.3 1.6.3 0 .5.1.8 0h7.4l.4.1zM56 29.6h1.5c.4 0 .7-.3.8-.6l3.3-14c.1-.5-.1-.8-.6-.8h-2.6c-.6 0-.9.3-1 .8-.7 2.8-1.3 5.5-2 8.3-.5 1.9-.9 3.7-1.4 5.6-.1.4.1.6.5.7H56zm33.7 2.5h4.2c.6 0 1.2-.4 1.3-1 .2-1 .5-2.1.7-3.1.1-.6-.2-1-.8-1h-4.5c-.6 0-1.1.4-1.2 1-.3 1.1-.5 2.3-.8 3.4-.1.6-.3 1.3-.4 1.9.7.2 1.3-.2 1.5-1.2zM67.8 27c-.1 0-.1 0 0 0h-5.6c-.6 0-1.1.4-1.2 1.1-.2 1-.4 2-.7 3-.1.6.2 1 .8 1h5.4c.1 0 .2 0 .2-.2.1-.6.3-1.3.4-1.9.2-1 .4-2 .7-3zm16.9 0h-2.2c-.6 0-1.2.4-1.3 1.1-.2 1-.4 2-.7 3-.1.6.2 1 .8 1h4.5c.6 0 1.1-.4 1.2-1 .2-1.1.5-2.1.7-3.2v-.4c-.1-.4-.4-.6-.8-.6-.7.1-1.4.1-2.2.1zm21.8 5.1h2.2c.7 0 1.2-.4 1.3-1 .2-1 .5-2 .7-3.1.1-.6-.2-1-.8-1h-4.5c-.6 0-1.1.4-1.3 1l-.6 2.7c0 .1 0 .2-.1.3-.1.6.2 1 .8 1.1h2.3zm-36.9-1.3v-.1c.2-.8.3-1.6.5-2.3v-.2c.2-.7-.2-1.1-.9-1.1-.1 0-.2 0-.2.2l-.9 3.9c-.1.6.2 1 .8 1h4.5c.6 0 1.1-.4 1.3-1.1.2-1 .4-2 .7-3 .1-.3.1-.7.2-1-.8-.1-1.4.3-1.5 1l-.3 1.5c-.1.4-.2.9-.3 1.3l-3.9-.1zm43.8-3.8c0-.2.1-.4 0-.6-.1-.4-.4-.6-1-.6-.1 0-.2.1-.2.1-.4 1.8-.8 3.5-1.1 5.3-.1.4.2.9.6.9h1.6c.7-.1 1.1-.6 1.1-1.3h-1.9v-.1c.2-.8.3-1.5.5-2.3 0-.1.1-.1.2-.1h.8c.7 0 1.3-.6 1.2-1.3h-1.8zm-35.6 1.3h1c.6 0 1.2-.6 1.2-1.3h-1.9v-.3c.1-.4-.1-.8-.4-.9-.2-.1-.4-.1-.6 0-.1 0-.1.3-.1.4v.1c-.4 1.6-.7 3.2-1.1 4.8-.1.6.1 1 .7 1h1.5c.7-.1 1.1-.6 1.1-1.3h-1.9l.5-2.5zm22.5 2.5c.2-.9.4-1.9.6-2.8.1-.4-.1-.8-.4-.9-.2 0-.4-.1-.5-.1-.1 0-.2.1-.2.2-.3 1.3-.6 2.6-.9 4-.1.5.2.9.7 1h1.4c.7 0 1.2-.6 1.2-1.3l-1.9-.1zM97 28.9c-.3 0-.3 0-.4.3-.1.6-.3 1.2-.4 1.8-.1.7.2 1.1.9 1.1.1 0 .3-.1.3-.2.1-.7.3-1.3.4-2 .2-.6-.2-1-.8-1zm-.1-.6h.8c.5 0 .5 0 .6-.5.1-.3.1-.5.2-.8h-1.3c-.1.4-.2.9-.3 1.3z"/><path d="M79.5 24.1c.2 0 .5-.1.7-.2 1.8-1.3 3.6-2.7 5.4-4l1.2-.9c0 .1.1.1.1.2 1 1.5 2 3.1 3 4.6.1.3.4.4.7.4h3.9c.5-.1.7-.5.4-1-.8-1.2-1.6-2.3-2.4-3.5-.8-1.2-1.6-2.3-2.4-3.5v-.1l8.4-6.5c.2-.2.4-.3.3-.6-.1-.3-.4-.3-.6-.3h-2.7c-.3 0-.5.1-.7.3-1.6 1.2-3.2 2.5-4.8 3.8L88.5 14c0-.1-.1-.1-.1-.1-1-1.5-2.1-3-3.1-4.6-.2-.3-.6-.5-.9-.5h-3.8c-.6.1-.8.5-.5 1l3.5 5.1 1.4 2-.2.2c-2.1 1.6-4.1 3.2-6.2 4.7-.1.1-.2.1-.4.1H74.9c.2-.5.3-.9.4-1.4.6-2.3 1.1-4.5 1.7-6.8.2-.8.4-1.5.4-2.3 0-1.1-.4-1.9-1.5-2.2-.8-.3-1.6-.3-2.5-.3H59.6c-.4 0-.7.3-.8.6l-.3 1.2c0 .1.2.3.5.3H72.7c.3 0 .4.1.4.5 0 .1 0 .3-.1.4-.6 2.6-1.3 5.3-1.9 7.9-.1.4-.2.9-.4 1.3-.1.3-.3.5-.6.5h-7.4c-.5 0-.7.2-.9.7-.1.4-.2.8-.3 1.1-.1.2 0 .5.3.5h.5l17.2.2zM108.6 17.2h-8.5c-.8-.1-1.3-.8-1.3-1.6 0-.5.1-1.1.3-1.6.4-1.5.7-3.1 1.1-4.6.1-.5.4-.7.9-.7h2.8c.5 0 .7.3.6.8-.4 1.5-.7 3-1.1 4.5v.5c0 .3.2.5.5.4h5.1c.1 0 .2-.1.2-.2.4-1.7.9-3.5 1.3-5.2.1-.5.4-.8.9-.8h2.8c.5 0 .7.3.6.8-.4 1.7-.8 3.4-1.3 5.2v.2H120.4c.2 0 .4.1.5.2.1.1.1.3.1.4l-.3 1.2c-.1.3-.3.6-.6.6H113.3c-.2 0-.3 0-.4.3-.5 2-1 4-1.4 5.9-.1.4-.4.7-.9.7h-2.9c-.5 0-.6-.3-.5-.7l1.5-6c-.1-.2-.1-.3-.1-.3z" class="st5"/><path d="M56 29.6h-1.4c-.4 0-.6-.2-.5-.7.5-1.9.9-3.7 1.4-5.6.7-2.8 1.3-5.5 2-8.3.1-.6.5-.8 1-.8H61c.5 0 .8.3.6.8l-3.4 13.9c-.1.4-.4.6-.8.6-.4.1-.9.1-1.4.1zM89.7 32.1c-.2.9-.8 1.4-1.6 1.3.1-.6.3-1.3.4-1.9.3-1.1.5-2.3.8-3.4.1-.6.6-1 1.2-1H95c.6 0 .9.4.8 1-.2 1-.4 2.1-.7 3.1-.1.6-.7 1-1.3 1h-3.9l-.2-.1zm4.7-3.8h-3.9c-.2.8-.4 1.7-.5 2.5h3.9c.1-.8.3-1.6.5-2.5zM67.8 27c-.2 1-.4 2-.7 3-.1.6-.3 1.3-.4 1.9 0 .1-.1.2-.2.2h-5.4c-.6 0-.9-.4-.8-1 .2-1 .4-2 .7-3 .1-.6.6-1.1 1.2-1.1h5.6c-.1 0-.1 0 0 0zm-6.1 3.8h3.8c.1 0 .1-.1.2-.1l.3-1.5c.1-.3.1-.6.2-.9h-3.9l-.6 2.5zM84.7 27h2.2c.5 0 .8.2.8.6v.4c-.2 1.1-.5 2.1-.7 3.2-.1.6-.6 1-1.2 1h-4.5c-.6 0-.9-.4-.8-1 .2-1 .4-2 .7-3 .1-.6.7-1.1 1.3-1.1h2.2zM82 30.8h3.8c.1 0 .1-.1.2-.1l.3-1.2.3-1.2h-3.9c-.4.9-.6 1.7-.7 2.5zM106.5 32.1h-2.2c-.7 0-1-.4-.8-1.1 0-.1 0-.2.1-.3l.6-2.7c.1-.6.6-1 1.3-1h4.5c.6 0 .9.4.8 1-.2 1-.4 2-.7 3.1-.1.6-.6 1-1.3 1h-2.3zm-1.7-1.3h3.8s.1-.1.1-.2l.3-1.2.3-1.2h-3.9c-.2 1-.4 1.8-.6 2.6zM69.6 30.8h3.9c.1-.4.2-.8.3-1.3l.3-1.5c.2-.7.8-1.1 1.5-1-.1.3-.1.7-.2 1-.2 1-.4 2-.7 3-.1.6-.6 1-1.3 1.1h-4.5c-.6 0-.9-.4-.8-1l.9-3.9c0-.1.1-.2.2-.2.7 0 1.1.4.9 1.1v.2c-.2.8-.3 1.6-.5 2.3v.2zM113.4 27h1.9c0 .7-.5 1.3-1.2 1.3h-.8c-.1 0-.1.1-.2.1-.2.8-.3 1.5-.5 2.3v.1h1.9c0 .7-.4 1.2-1.1 1.3h-1.6c-.5 0-.7-.5-.6-.9.4-1.8.8-3.5 1.1-5.3 0-.1.1-.2.2-.2.5 0 .9.2 1 .6-.1.3-.1.5-.1.7zM77.8 28.3l-.6 2.5h1.9c0 .7-.5 1.2-1.1 1.3h-1.5c-.6 0-.8-.5-.7-1 .4-1.6.7-3.2 1.1-4.8v-.1c0-.1.1-.4.1-.4h.6c.4.1.5.5.4.9v.3h2c0 .7-.5 1.3-1.2 1.3h-1zM100.3 30.8h1.9c0 .7-.5 1.2-1.2 1.3h-1.4c-.5 0-.8-.4-.7-1 .3-1.3.6-2.6.9-4 0-.1.1-.2.2-.2.2 0 .4 0 .5.1.4.1.5.5.4.9-.2 1.1-.4 2-.6 2.9zM97 28.9c.6 0 .9.4.8 1-.1.7-.3 1.3-.4 2 0 .1-.1.2-.2.2-.7 0-1-.4-.9-1.1.1-.6.3-1.2.4-1.8 0-.3 0-.3.3-.3zM96.9 28.3c.1-.4.2-.8.3-1.3h1.3c-.1.3-.1.5-.2.8-.1.5-.1.5-.6.5h-.8z" class="st5"/><path d="M94.4 28.3c-.2.8-.4 1.7-.5 2.5H90c.2-.8.4-1.7.5-2.5h3.9zM61.7 30.8l.6-2.5h3.9c-.1.3-.1.6-.2.9l-.3 1.5c0 .1-.1.1-.2.1h-3.8zM82 30.8c.2-.9.4-1.7.6-2.5h3.9l-.3 1.2-.3 1.2c0 .1-.1.1-.2.1H82zM104.8 30.8c.2-.8.4-1.7.6-2.5h3.9l-.3 1.2-.3 1.2c0 .1-.1.2-.1.2-1.2-.1-2.5-.1-3.8-.1z"/></g></g></svg>